<svg width="755" height="99" viewBox="0 0 755 99" fill="none" xmlns="http://www.w3.org/2000/svg">
<path d="M40.875 98.25C27.2917 98.25 17.0833 94.4375 10.25 86.8125C3.45833 79.1875 0.0625 67.75 0.0625 52.5C0.0625 38.0417 3.58333 26.8542 10.625 18.9375C17.6667 10.9792 27.5833 7 40.375 7C46.8333 7 52.3958 8.02083 57.0625 10.0625C61.7708 12.0625 65.4375 14.9167 68.0625 18.625L57.6875 30.5625C55.7708 28.1042 53.3542 26.1875 50.4375 24.8125C47.5625 23.3958 44.4583 22.6875 41.125 22.6875C33.625 22.6875 27.7917 25.2292 23.625 30.3125C19.5 35.3958 17.4375 42.5833 17.4375 51.875C17.4375 62.0833 19.5208 69.75 23.6875 74.875C27.8542 79.9583 34.0833 82.5 42.375 82.5C46.3333 82.5 49.8125 82.125 52.8125 81.375C55.8542 80.5833 58.3333 79.9167 60.25 79.375L66.1875 94.5C64.3542 95.0417 61.1458 95.8125 56.5625 96.8125C51.9792 97.7708 46.75 98.25 40.875 98.25ZM49.8125 94.5V51.0625H66.1875V94.5H49.8125ZM35.125 66.25V51.0625H65.8125V66.25H35.125ZM99.0375 97V34.5H115.912V97H99.0375ZM74.5375 97V81.375H100.287V97H74.5375ZM114.662 97V81.375H135.537V97H114.662ZM78.2875 46.375V30.75H115.912V46.375H78.2875ZM106.725 21.8125C103.517 21.8125 100.912 20.8125 98.9125 18.8125C96.9125 16.8125 95.9125 14.2083 95.9125 11C95.9125 7.79167 96.9125 5.1875 98.9125 3.1875C100.912 1.1875 103.517 0.1875 106.725 0.1875C109.933 0.1875 112.537 1.1875 114.537 3.1875C116.537 5.1875 117.537 7.79167 117.537 11C117.537 14.2083 116.537 16.8125 114.537 18.8125C112.537 20.8125 109.933 21.8125 106.725 21.8125ZM181.575 98.25C173.242 98.25 167.221 95.9583 163.512 91.375C159.846 86.7917 158.012 79.4583 158.012 69.375V3.25H174.887V68.75C174.887 71.5 175.179 73.75 175.762 75.5C176.346 77.25 177.471 78.5417 179.137 79.375C180.804 80.2083 183.283 80.625 186.575 80.625C190.242 80.625 194.867 79.8333 200.45 78.25L202.387 95.625C198.846 96.5417 195.429 97.2083 192.137 97.625C188.846 98.0417 185.325 98.25 181.575 98.25ZM139.262 18.8125V3.25H159.137V18.8125H139.262ZM233.738 98.25C225.529 98.25 219.133 95.2917 214.55 89.375C210.008 83.4583 207.738 74.9792 207.738 63.9375C207.738 52.9792 210.008 44.5 214.55 38.5C219.133 32.5 225.571 29.5 233.863 29.5C238.696 29.5 242.363 30.6042 244.863 32.8125C247.404 34.9792 249.05 38.2917 249.8 42.75H255.3L251.425 63.9375C251.425 57.5208 250.342 52.8333 248.175 49.875C246.05 46.9167 242.821 45.4375 238.488 45.4375C234.196 45.4375 230.883 47.0625 228.55 50.3125C226.217 53.5208 225.05 58.0625 225.05 63.9375C225.05 70.0208 226.175 74.6042 228.425 77.6875C230.717 80.7708 234.071 82.3125 238.488 82.3125C243.321 82.3125 246.675 80.8542 248.55 77.9375C250.467 75.0208 251.425 70.3542 251.425 63.9375L255.925 85H250.05C249.383 89.4167 247.654 92.7292 244.863 94.9375C242.071 97.1458 238.363 98.25 233.738 98.25ZM253.863 97.625L251.425 84.5V3.25H268.363V97L253.863 97.625ZM314.15 98.25C302.692 98.25 293.837 95.2917 287.587 89.375C281.337 83.4167 278.212 74.875 278.212 63.75C278.212 52.9167 280.858 44.5 286.15 38.5C291.483 32.5 298.983 29.5 308.65 29.5C318.108 29.5 325.421 32.2708 330.587 37.8125C335.754 43.3542 338.337 51.4167 338.337 62C338.337 65 338.212 67.8542 337.962 70.5625H289.337V58.8125H321.712C321.712 54.3542 320.567 50.9375 318.275 48.5625C316.025 46.1875 312.858 45 308.775 45C304.358 45 300.921 46.5833 298.462 49.75C296.046 52.875 294.837 57.3333 294.837 63.125C294.837 69.375 296.629 74.125 300.212 77.375C303.837 80.625 308.983 82.25 315.65 82.25C318.65 82.25 321.608 82.1042 324.525 81.8125C327.442 81.4792 330.421 81.0417 333.462 80.5L335.087 96.5C330.837 97.25 326.962 97.7292 323.462 97.9375C319.962 98.1458 316.858 98.25 314.15 98.25ZM392.438 97V52.125C392.438 47.5417 391.104 45.25 388.438 45.25C385.438 45.25 383.938 47.7292 383.938 52.6875L379.438 39H385.062C385.438 36.0417 386.583 33.7292 388.5 32.0625C390.458 30.3542 393.021 29.5 396.188 29.5C400.646 29.5 403.896 30.7292 405.938 33.1875C408.021 35.6458 409.062 39.625 409.062 45.125V97H392.438ZM345.938 97V30.75H361.125L362.625 44.75V97H345.938ZM371.375 97V50.875C371.375 47.125 370.042 45.25 367.375 45.25C364.208 45.25 362.625 47.7292 362.625 52.6875L358.75 39H363.5C364.417 32.6667 367.771 29.5 373.562 29.5C376.771 29.5 379.292 30.6875 381.125 33.0625C383 35.4375 383.938 39.0417 383.938 43.875V97H371.375ZM458.288 97.625L456.85 78L456.6 69.375V56.4375C456.6 52.8958 455.079 50.3125 452.038 48.6875C449.038 47.0208 444.558 46.1042 438.6 45.9375L421.663 45.5L422.913 30.125L437.35 30.3125C449.35 30.4792 458.267 32.8542 464.1 37.4375C469.933 41.9792 472.85 48.625 472.85 57.375V81.875L482.038 83.25V97L458.288 97.625ZM435.85 98.25C428.808 98.25 423.329 96.5208 419.413 93.0625C415.496 89.6042 413.538 84.6875 413.538 78.3125C413.538 70.8958 416.1 65.2083 421.225 61.25C426.35 57.2917 433.621 55.3125 443.038 55.3125C446.663 55.3125 449.788 55.5 452.413 55.875C455.079 56.25 457.767 56.8333 460.475 57.625L457.725 70.8125C455.058 70.1875 452.663 69.8333 450.538 69.75C448.413 69.625 446.183 69.5625 443.85 69.5625C435.1 69.5625 430.725 72.0625 430.725 77.0625C430.725 79.3125 431.517 81.0417 433.1 82.25C434.683 83.4167 436.996 84 440.038 84C443.704 84 446.767 83.3125 449.225 81.9375C451.683 80.5625 453.517 78.8125 454.725 76.6875C455.975 74.5625 456.6 72.375 456.6 70.125V66L458.975 83H453.663L455.85 81C455.725 84.8333 454.85 88.0417 453.225 90.625C451.6 93.1667 449.308 95.0833 446.35 96.375C443.433 97.625 439.933 98.25 435.85 98.25ZM512.013 68.5L508.138 45.6875H513.825C514.492 34.8958 520.138 29.5 530.763 29.5C537.054 29.5 541.867 31.8125 545.2 36.4375C548.575 41.0625 550.263 47.7292 550.263 56.4375H533.388C533.388 52.5208 532.658 49.7083 531.2 48C529.783 46.2917 527.492 45.4375 524.325 45.4375C520.2 45.4375 517.117 47.4375 515.075 51.4375C513.033 55.4375 512.013 61.125 512.013 68.5ZM481.138 97V82.5H527.513V97H481.138ZM495.138 97V30.75H509.513L512.013 49.75V97H495.138ZM483.638 45.25V30.75H508.638L509.888 45.25H483.638ZM569.112 97V81.25H576.05C584.175 81.25 590.258 78.9375 594.3 74.3125C598.383 69.6458 600.425 62.8333 600.425 53.875C600.425 44.0417 598.383 36.6042 594.3 31.5625C590.258 26.5208 584.175 24 576.05 24H569.362L567.862 8.25H576.05C603.842 8.25 617.737 23.4583 617.737 53.875C617.737 82.625 603.842 97 576.05 97H569.112ZM553.487 97V8.25H569.987V97H553.487ZM657.15 98.25C645.692 98.25 636.838 95.2917 630.588 89.375C624.338 83.4167 621.213 74.875 621.213 63.75C621.213 52.9167 623.858 44.5 629.15 38.5C634.483 32.5 641.983 29.5 651.65 29.5C661.108 29.5 668.421 32.2708 673.588 37.8125C678.754 43.3542 681.338 51.4167 681.338 62C681.338 65 681.213 67.8542 680.963 70.5625H632.338V58.8125H664.713C664.713 54.3542 663.567 50.9375 661.275 48.5625C659.025 46.1875 655.858 45 651.775 45C647.358 45 643.921 46.5833 641.463 49.75C639.046 52.875 637.838 57.3333 637.838 63.125C637.838 69.375 639.629 74.125 643.213 77.375C646.838 80.625 651.983 82.25 658.65 82.25C661.65 82.25 664.608 82.1042 667.525 81.8125C670.442 81.4792 673.421 81.0417 676.463 80.5L678.088 96.5C673.838 97.25 669.963 97.7292 666.463 97.9375C662.963 98.1458 659.858 98.25 657.15 98.25ZM709.625 97L686.938 30.75H704.188L719.938 82.125H721.062L736.812 30.75H754.062L731.375 97H709.625Z" fill="black"/>
</svg>
